<svg width="128" height="128" viewBox="0 0 128 128" xmlns="http://www.w3.org/2000/svg">
  <!-- Background circle with gradient -->
  <defs>
    <linearGradient id="bg128" x1="0%" y1="0%" x2="100%" y2="100%">
      <stop offset="0%" stop-color="#6366f1"/>
      <stop offset="30%" stop-color="#8b5cf6"/>
      <stop offset="70%" stop-color="#d946ef"/>
      <stop offset="100%" stop-color="#ec4899"/>
    </linearGradient>
    <filter id="shadow">
      <feDropShadow dx="2" dy="4" stdDeviation="3" flood-color="rgba(0,0,0,0.3)"/>
    </filter>
  </defs>
  <circle cx="64" cy="64" r="58" fill="url(#bg128)" stroke="#4f46e5" stroke-width="4" filter="url(#shadow)"/>
  
  <!-- Main eye icon for study monitoring -->
  <ellipse cx="64" cy="64" rx="35" ry="20" fill="white" opacity="0.95"/>
  <circle cx="64" cy="64" r="12" fill="#4f46e5"/>
  <circle cx="68" cy="60" r="4" fill="white"/>
  <circle cx="70" cy="58" r="1.5" fill="#e0e7ff"/>
  
  <!-- Timer/clock indicator -->
  <circle cx="92" cy="36" r="15" fill="#22c55e" stroke="white" stroke-width="2"/>
  <circle cx="92" cy="36" r="12" fill="none" stroke="white" stroke-width="1" opacity="0.3"/>
  <path d="M92 27 L92 36 L98 42" stroke="white" stroke-width="3" fill="none" stroke-linecap="round"/>
  
  <!-- Study book icon -->
  <rect x="32" y="95" width="20" height="15" rx="2" fill="#f59e0b" stroke="white" stroke-width="1"/>
  <rect x="34" y="97" width="16" height="2" fill="white" opacity="0.8"/>
  <rect x="34" y="100" width="12" height="1" fill="white" opacity="0.6"/>
  <rect x="34" y="102" width="14" height="1" fill="white" opacity="0.6"/>
  
  <!-- Brain/AI indicator -->
  <circle cx="36" cy="36" r="8" fill="#8b5cf6" stroke="white" stroke-width="1"/>
  <path d="M32 36 Q36 32 40 36 Q36 40 32 36" fill="white" opacity="0.8"/>
  <circle cx="35" cy="34" r="1" fill="white"/>
  <circle cx="37" cy="38" r="1" fill="white"/>
</svg>
